{"accessors":[{"bufferView":0,"byteOffset":0,"componentType":5126,"count":4,"max":[1.7,0.0,5632451.0],"min":[0.7000000000000001,-2.2204460492503133e-17,5632450.9],"type":"VEC3"},{"bufferView":0,"byteOffset":48,"componentType":5126,"count":4,"max":[0.7000000000000001,1.0,5632451.0],"min":[0.7000000000000001,-2.2204460492503133e-17,5632450.9],"type":"VEC3"},{"bufferView":0,"byteOffset":96,"componentType":5126,"count":4,"max":[1.7,1.0,5632451.0],"min":[1.7,-2.2204460492503133e-17,5632450.9],"type":"VEC3"},{"bufferView":0,"byteOffset":144,"componentType":5126,"count":8,"max":[1.7,1.0,5632451.0],"min":[0.7000000000000001,0.0,5632451.0],"type":"VEC3"},{"bufferView":0,"byteOffset":240,"componentType":5126,"count":8,"max":[1.7,1.0,5632450.9],"min":[0.7000000000000001,-2.2204460492503133e-17,5632450.9],"type":"VEC3"},{"bufferView":0,"byteOffset":336,"componentType":5126,"count":4,"max":[1.7,1.0,5632451.0],"min":[0.7000000000000001,1.0,5632450.9],"type":"VEC3"},{"bufferView":0,"byteOffset":384,"componentType":5126,"count":4,"max":[1.6500000000000002,0.05,5632451.0],"min":[0.75,0.04999999999999998,5632450.9],"type":"VEC3"},{"bufferView":0,"byteOffset":432,"componentType":5126,"count":4,"max":[1.6500000000000002,0.9500000000000001,5632451.0],"min":[1.6500000000000002,0.04999999999999998,5632450.9],"type":"VEC3"},{"bufferView":0,"byteOffset":480,"componentType":5126,"count":4,"max":[1.6500000000000002,0.9500000000000001,5632451.0],"min":[0.75,0.9500000000000001,5632450.9],"type":"VEC3"},{"bufferView":0,"byteOffset":528,"componentType":5126,"count":4,"max":[0.75,0.9500000000000001,5632451.0],"min":[0.75,0.04999999999999998,5632450.9],"type":"VEC3"},{"bufferView":0,"byteOffset":576,"componentType":5126,"count":4,"max":[1.6500000000000002,0.04999999999999999,5632450.95],"min":[0.75,0.04999999999999999,5632450.94],"type":"VEC3"},{"bufferView":0,"byteOffset":624,"componentType":5126,"count":4,"max":[1.6500000000000002,0.9500000000000001,5632450.95],"min":[1.6500000000000002,0.04999999999999999,5632450.94],"type":"VEC3"},{"bufferView":0,"byteOffset":672,"componentType":5126,"count":4,"max":[1.6500000000000002,0.9500000000000001,5632450.95],"min":[0.75,0.9500000000000001,5632450.94],"type":"VEC3"},{"bufferView":0,"byteOffset":720,"componentType":5126,"count":4,"max":[0.75,0.9500000000000001,5632450.95],"min":[0.75,0.04999999999999999,5632450.94],"type":"VEC3"},{"bufferView":0,"byteOffset":768,"componentType":5126,"count":4,"max":[1.6500000000000002,0.9500000000000001,5632450.95],"min":[0.75,0.04999999999999999,5632450.95],"type":"VEC3"},{"bufferView":0,"byteOffset":816,"componentType":5126,"count":4,"max":[1.6500000000000002,0.9500000000000001,5632450.94],"min":[0.75,0.04999999999999999,5632450.94],"type":"VEC3"},{"bufferView":1,"byteOffset":0,"componentType":5126,"count":4,"type":"VEC3"},{"bufferView":1,"byteOffset":48,"componentType":5126,"count":4,"type":"VEC3"},{"bufferView":1,"byteOffset":96,"componentType":5126,"count":4,"type":"VEC3"},{"bufferView":1,"byteOffset":144,"componentType":5126,"count":8,"type":"VEC3"},{"bufferView":1,"byteOffset":240,"componentType":5126,"count":8,"type":"VEC3"},{"bufferView":1,"byteOffset":336,"componentType":5126,"count":4,"type":"VEC3"},{"bufferView":1,"byteOffset":384,"componentType":5126,"count":4,"type":"VEC3"},{"bufferView":1,"byteOffset":432,"componentType":5126,"count":4,"type":"VEC3"},{"bufferView":1,"byteOffset":480,"componentType":5126,"count":4,"type":"VEC3"},{"bufferView":1,"byteOffset":528,"componentType":5126,"count":4,"type":"VEC3"},{"bufferView":1,"byteOffset":576,"componentType":5126,"count":4,"type":"VEC3"},{"bufferView":1,"byteOffset":624,"componentType":5126,"count":4,"type":"VEC3"},{"bufferView":1,"byteOffset":672,"componentType":5126,"count":4,"type":"VEC3"},{"bufferView":1,"byteOffset":720,"componentType":5126,"count":4,"type":"VEC3"},{"bufferView":1,"byteOffset":768,"componentType":5126,"count":4,"type":"VEC3"},{"bufferView":1,"byteOffset":816,"componentType":5126,"count":4,"type":"VEC3"},{"bufferView":2,"byteOffset":0,"componentType":5123,"count":6,"type":"SCALAR"},{"bufferView":2,"byteOffset":12,"componentType":5123,"count":6,"type":"SCALAR"},{"bufferView":2,"byteOffset":24,"componentType":5123,"count":6,"type":"SCALAR"},{"bufferView":2,"byteOffset":36,"componentType":5123,"count":24,"type":"SCALAR"},{"bufferView":2,"byteOffset":84,"componentType":5123,"count":24,"type":"SCALAR"},{"bufferView":2,"byteOffset":132,"componentType":5123,"count":6,"type":"SCALAR"},{"bufferView":2,"byteOffset":144,"componentType":5123,"count":6,"type":"SCALAR"},{"bufferView":2,"byteOffset":156,"componentType":5123,"count":6,"type":"SCALAR"},{"bufferView":2,"byteOffset":168,"componentType":5123,"count":6,"type":"SCALAR"},{"bufferView":2,"byteOffset":180,"componentType":5123,"count":6,"type":"SCALAR"},{"bufferView":2,"byteOffset":192,"componentType":5123,"count":6,"type":"SCALAR"},{"bufferView":2,"byteOffset":204,"componentType":5123,"count":6,"type":"SCALAR"},{"bufferView":2,"byteOffset":216,"componentType":5123,"count":6,"type":"SCALAR"},{"bufferView":2,"byteOffset":228,"componentType":5123,"count":6,"type":"SCALAR"},{"bufferView":2,"byteOffset":240,"componentType":5123,"count":6,"type":"SCALAR"},{"bufferView":2,"byteOffset":252,"componentType":5123,"count":6,"type":"SCALAR"}],"asset":{"generator":"Open CASCADE Technology 7.7 [dev.opencascade.org]","version":"2.0"},"bufferViews":[{"buffer":0,"byteLength":864,"byteOffset":0,"byteStride":12,"target":34962},{"buffer":0,"byteLength":864,"byteOffset":864,"byteStride":12,"target":34962},{"buffer":0,"byteLength":264,"byteOffset":1728,"target":34963}],"buffers":[{"byteLength":1992,"uri":"wall-Window.bin"}],"materials":[{"name":"mat_0","pbrMetallicRoughness":{"baseColorFactor":[0.6038273572921753,0.6038273572921753,0.7912984490394592,0.0],"metallicFactor":0.0},"doubleSided":true,"alphaMode":"BLEND"},{"name":"mat_1","pbrMetallicRoughness":{"baseColorFactor":[0.6038273572921753,0.6038273572921753,0.7912984490394592,1.0]},"doubleSided":true}],"meshes":[{"name":"Window","primitives":[{"attributes":{"NORMAL":16,"POSITION":0},"indices":32,"material":0,"mode":4},{"attributes":{"NORMAL":17,"POSITION":1},"indices":33,"material":0,"mode":4},{"attributes":{"NORMAL":18,"POSITION":2},"indices":34,"material":0,"mode":4},{"attributes":{"NORMAL":19,"POSITION":3},"indices":35,"material":0,"mode":4},{"attributes":{"NORMAL":20,"POSITION":4},"indices":36,"material":0,"mode":4},{"attributes":{"NORMAL":21,"POSITION":5},"indices":37,"material":0,"mode":4},{"attributes":{"NORMAL":22,"POSITION":6},"indices":38,"material":0,"mode":4},{"attributes":{"NORMAL":23,"POSITION":7},"indices":39,"material":0,"mode":4},{"attributes":{"NORMAL":24,"POSITION":8},"indices":40,"material":0,"mode":4},{"attributes":{"NORMAL":25,"POSITION":9},"indices":41,"material":0,"mode":4},{"attributes":{"NORMAL":26,"POSITION":10},"indices":42,"material":1,"mode":4},{"attributes":{"NORMAL":27,"POSITION":11},"indices":43,"material":1,"mode":4},{"attributes":{"NORMAL":28,"POSITION":12},"indices":44,"material":1,"mode":4},{"attributes":{"NORMAL":29,"POSITION":13},"indices":45,"material":1,"mode":4},{"attributes":{"NORMAL":30,"POSITION":14},"indices":46,"material":1,"mode":4},{"attributes":{"NORMAL":31,"POSITION":15},"indices":47,"material":1,"mode":4}]}],"nodes":[{"mesh":0,"name":"Window"}],"scene":0,"scenes":[{"nodes":[0]}]}